<?xml version="1.0" encoding="utf-8"?>
<!-- Generator: Adobe Illustrator 22.1.0, SVG Export Plug-In . SVG Version: 6.00 Build 0)  -->
<svg version="1.1" id="레이어_1" xmlns="http://www.w3.org/2000/svg" xmlns:xlink="http://www.w3.org/1999/xlink" x="0px"
	 y="0px" viewBox="0 0 64 64" style="enable-background:new 0 0 64 64;" xml:space="preserve">
<style type="text/css">
	.st0{opacity:0.2;}
	.st1{fill:#231F20;}
	.st2{fill:#FFFFFF;}
	.st3{fill:#C75C5C;}
	.st4{fill:#E0E0D1;}
</style>
<g id="Layer_1">
	<g>
		<g>
			<g class="st0">
				<path class="st1" d="M1.4,23.6v34.8c0,3.1,2.8,5.6,6.1,5.6h49c3.4,0,6.1-2.5,6.1-5.6V23.6H1.4z"/>
			</g>
			<g>
				<path class="st2" d="M1.4,20.8v34.8c0,3.1,2.8,5.6,6.1,5.6h49c3.4,0,6.1-2.5,6.1-5.6V20.8H1.4z"/>
			</g>
			<g class="st0">
				<path class="st1" d="M56.5,8.3h-49c-3.4,0-6.1,2.5-6.1,5.6v9.8h61.2v-9.8C62.6,10.8,59.9,8.3,56.5,8.3z"/>
			</g>
			<g>
				<path class="st3" d="M56.5,5.5h-49c-3.4,0-6.1,2.5-6.1,5.6v9.8h61.2v-9.8C62.6,8,59.9,5.5,56.5,5.5z"/>
			</g>
		</g>
		<g>
			<g class="st0">
				<path class="st1" d="M17,13c-1.1,0-2-0.9-2-2V4c0-1.1,0.9-2,2-2l0,0c1.1,0,2,0.9,2,2v7C19,12.1,18.1,13,17,13L17,13z"/>
			</g>
			<g class="st0">
				<path class="st1" d="M48,13c-1.1,0-2-0.9-2-2V4c0-1.1,0.9-2,2-2l0,0c1.1,0,2,0.9,2,2v7C50,12.1,49.1,13,48,13L48,13z"/>
			</g>
			<g>
				<path class="st4" d="M17,11c-1.1,0-2-0.9-2-2V2c0-1.1,0.9-2,2-2l0,0c1.1,0,2,0.9,2,2v7C19,10.1,18.1,11,17,11L17,11z"/>
			</g>
			<g>
				<path class="st4" d="M48,11c-1.1,0-2-0.9-2-2V2c0-1.1,0.9-2,2-2l0,0c1.1,0,2,0.9,2,2v7C50,10.1,49.1,11,48,11L48,11z"/>
			</g>
		</g>
	</g>
</g>
<g id="Layer_2">
</g>
</svg>
